<?xml version="1.0" encoding="UTF-8" standalone="no"?>
<!DOCTYPE svg PUBLIC "-//W3C//DTD SVG 1.1//EN" "http://www.w3.org/Graphics/SVG/1.1/DTD/svg11.dtd">
<svg width="100%" height="100%" viewBox="0 0 32 32" version="1.1" xmlns="http://www.w3.org/2000/svg" xmlns:xlink="http://www.w3.org/1999/xlink" xml:space="preserve" xmlns:serif="http://www.serif.com/" style="fill-rule:evenodd;clip-rule:evenodd;stroke-linejoin:round;stroke-miterlimit:2;">
    <g transform="matrix(1,0,0,1,-526,-22)">
        <rect id="Mono-White" serif:id="Mono White" x="526" y="22" width="32" height="32" style="fill:none;"/>
        <clipPath id="_clip1">
            <rect id="Mono-White1" serif:id="Mono White" x="526" y="22" width="32" height="32"/>
        </clipPath>
        <g clip-path="url(#_clip1)">
            <path d="M542,22C544.858,22 554.427,27.525 555.856,30C557.285,32.475 557.285,43.525 555.856,46C554.427,48.475 544.858,54 542,54C539.142,54 529.573,48.475 528.144,46C526.715,43.525 526.715,32.475 528.144,30C529.573,27.525 539.142,22 542,22ZM541.7,26.745C541.886,26.637 542.114,26.637 542.3,26.745C542.81,27.039 543.84,27.634 544.35,27.928C544.537,28.036 544.651,28.235 544.65,28.451C544.647,29.238 544.639,31.179 544.633,32.397C544.632,32.613 544.747,32.812 544.933,32.92C545.12,33.027 545.349,33.027 545.535,32.918C546.588,32.305 548.265,31.326 548.945,30.93C549.131,30.822 549.36,30.821 549.547,30.929C550.058,31.224 551.088,31.818 551.597,32.113C551.783,32.22 551.897,32.418 551.897,32.632C551.897,33.221 551.897,34.41 551.897,35C551.897,35.215 551.782,35.414 551.595,35.521C550.912,35.911 549.226,36.875 548.169,37.479C547.982,37.586 547.866,37.785 547.866,38C547.866,38.215 547.982,38.414 548.169,38.521C549.226,39.125 550.912,40.089 551.595,40.479C551.782,40.586 551.897,40.785 551.897,41C551.897,41.59 551.897,42.779 551.897,43.368C551.897,43.582 551.783,43.78 551.597,43.887C551.088,44.182 550.058,44.776 549.547,45.071C549.36,45.179 549.131,45.178 548.945,45.07C548.265,44.674 546.588,43.695 545.535,43.082C545.349,42.973 545.12,42.973 544.933,43.08C544.747,43.188 544.632,43.387 544.633,43.603C544.639,44.821 544.647,46.762 544.65,47.549C544.651,47.765 544.537,47.964 544.35,48.072C543.84,48.366 542.81,48.961 542.3,49.255C542.114,49.363 541.886,49.363 541.7,49.255C541.19,48.961 540.16,48.366 539.65,48.072C539.463,47.964 539.349,47.765 539.35,47.549C539.353,46.762 539.361,44.821 539.367,43.603C539.368,43.387 539.253,43.188 539.067,43.08C538.88,42.973 538.651,42.973 538.465,43.082C537.412,43.695 535.735,44.674 535.055,45.07C534.869,45.178 534.64,45.179 534.453,45.071C533.942,44.776 532.912,44.182 532.403,43.887C532.217,43.78 532.103,43.582 532.103,43.368C532.103,42.779 532.103,41.59 532.103,41C532.103,40.785 532.218,40.586 532.405,40.479C533.088,40.089 534.774,39.125 535.831,38.521C536.018,38.414 536.134,38.215 536.134,38C536.134,37.785 536.018,37.586 535.831,37.479C534.774,36.875 533.088,35.911 532.405,35.521C532.218,35.414 532.103,35.215 532.103,35C532.103,34.41 532.103,33.221 532.103,32.632C532.103,32.418 532.217,32.22 532.403,32.113C532.912,31.818 533.942,31.224 534.453,30.929C534.64,30.821 534.869,30.822 535.055,30.93C535.735,31.326 537.412,32.305 538.465,32.918C538.651,33.027 538.88,33.027 539.067,32.92C539.253,32.812 539.368,32.613 539.367,32.397C539.361,31.179 539.353,29.238 539.35,28.451C539.349,28.235 539.463,28.036 539.65,27.928C540.16,27.634 541.19,27.039 541.7,26.745Z" style="fill:white;"/>
        </g>
    </g>
</svg>
